<svg
   version="1.1"
   x="0px"
   y="0px"
   viewBox="0 0 20 20"
   enable-background="new 0 0 1000 1000"
   xml:space="preserve"
   width="20"
   height="20"
   xmlns="http://www.w3.org/2000/svg"
   xmlns:svg="http://www.w3.org/2000/svg">
   <g transform="matrix(0.02480856,0,0,0.02040798,-2.4044455,-0.20407442)">
      <g
      transform="matrix(0.1,0,0,-0.1,0,512)"
      style="fill:#ffffff">
         <path d="M 4137.3,4998.5 C 3662.9,4952 3157.4,4804.9 2739.2,4595.7 1588.9,4018.7 969.2,2876.1 969.2,1332.8 c 0,-509.3 56.2,-869.5 207.2,-1326.5 154.9,-466.7 352.4,-828.8 863.7,-1582.1 114.3,-168.5 220.8,-342.7 236.2,-389.2 83.3,-232.4 87.1,-824.9 11.6,-1320.7 -19.4,-133.6 -29,-247.9 -23.2,-253.7 7.8,-7.7 790.1,-296.3 1740.9,-641 1626.6,-592.6 1727.3,-627.4 1737,-588.7 25.2,98.8 69.7,509.3 69.7,637.1 2,290.5 89.1,544.2 244,712.6 110.4,116.2 205.3,174.3 375.7,228.5 185.9,58.1 335,77.5 799.8,98.8 613.8,29 852,79.4 989.5,209.1 75.5,71.7 89.1,118.1 98.8,325.3 11.6,218.8 44.6,321.4 160.7,511.2 112.3,180.1 122,275 36.8,364.1 l -54.2,56.2 46.5,13.6 c 54.2,13.6 96.8,94.9 79.4,154.9 -5.8,21.3 -32.9,96.8 -60,164.6 -112.3,286.6 -36.8,476.3 216.9,546.1 209.2,58.1 286.6,143.3 284.7,317.6 -2,141.4 -46.5,238.2 -352.5,745.5 -151,249.8 -309.8,528.7 -354.4,615.8 -73.6,147.2 -79.4,178.2 -87.1,338.9 -5.8,123.9 3.9,222.7 27.1,323.4 50.4,216.9 56.2,493.8 17.4,673.9 -92.9,426 -329.2,968.2 -559.6,1289.7 -336.9,468.6 -732,795.9 -1274.2,1057.3 -668.2,319.5 -1528,462.8 -2310.3,383.4 z m 1210.3,-586.7 c 730.1,-106.5 1252.9,-346.6 1677,-772.7 377.6,-379.5 598.4,-803.6 714.6,-1376.8 89.1,-433.8 50.3,-739.7 -141.3,-1140.6 C 7454.6,823.5 7324.8,641.4 7063.4,382 6724.5,45.1 6368.2,-179.6 5876.4,-363.5 5070.7,-667.6 3932,-764.4 3188.4,-594 2729.5,-487.5 2406.1,-313.2 2104,-3.4 c -271.1,275 -437.6,592.6 -538.3,1024.4 -62,273 -58.1,714.5 11.6,1043.7 172.4,811.4 532.5,1419.4 1096,1845.5 307.9,232.4 797.8,443.4 1154.1,493.8 422.2,60 1136.7,63.9 1520.2,7.8 z"
            style="fill:#ffffff" />
         <path d="m 5920.8,3579.1 c -5.8,-15.5 -5.8,-54.2 0,-83.3 9.7,-48.4 3.9,-54.2 -92.9,-87.1 -56.2,-19.4 -116.2,-38.7 -131.7,-44.5 -19.4,-5.8 -40.7,7.7 -58.1,38.7 -42.6,81.3 -98.8,63.9 -226.6,-71.6 -63.9,-67.8 -125.9,-153 -141.4,-187.8 -25.1,-60 -23.2,-65.8 17.4,-98.8 25.2,-21.3 58.1,-36.8 73.6,-36.8 19.4,0 25.1,-11.6 15.5,-32.9 -7.7,-19.4 -17.4,-81.3 -23.2,-135.6 -11.6,-98.7 -13.6,-102.6 -81.3,-114.2 -38.7,-7.7 -75.5,-21.3 -81.3,-31 -36.8,-56.2 102.6,-429.9 168.5,-455.1 17.4,-5.8 56.1,3.9 87.1,21.3 l 56.2,32.9 91,-77.5 c 48.4,-44.5 96.8,-79.4 104.6,-79.4 9.7,0 1.9,-31 -15.5,-67.8 -29.1,-60 -29.1,-71.7 -3.9,-96.8 38.7,-38.7 238.2,-87.1 358.2,-87.1 116.2,0 153,29 135.6,110.4 -11.6,52.3 -7.7,56.2 118.2,98.8 l 129.7,46.5 36.8,-50.3 c 19.4,-27.1 50.3,-50.4 69.7,-50.4 63.9,0 311.8,294.3 311.8,373.7 0,21.3 -25.1,44.5 -65.8,62 -63.9,27.1 -65.8,31 -48.4,91 9.7,34.8 17.4,96.8 17.4,135.6 0,69.7 1.9,73.6 65.8,73.6 100.7,0 116.2,34.9 81.3,176.2 -34.8,135.6 -118.1,300.2 -160.7,315.6 -15.5,7.7 -54.2,-5.8 -83.3,-27.1 l -56.2,-38.7 -44.5,42.6 c -25.2,25.2 -69.7,63.9 -100.7,85.2 -54.2,38.7 -54.2,42.6 -29,112.3 23.3,62 21.3,73.6 -1.9,91 -112.5,71.5 -468.8,104.5 -492,46.4 z m 251.7,-426 c 170.4,-50.4 298.2,-224.6 298.2,-406.7 0,-236.3 -182,-416.3 -420.2,-416.3 -255.6,1.9 -431.8,180.1 -431.8,435.7 2,162.7 133.6,336.9 292.4,387.3 110.4,34.8 147.2,34.8 261.4,0 z"
            style="fill:#ffffff" />
         <path d="m 3382.1,3383.5 c -21.3,-3.9 -87.1,-17.4 -145.2,-29.1 -230.4,-46.5 -567.4,-213 -586.7,-292.4 -7.8,-29.1 3.9,-69.7 36.8,-118.1 l 48.4,-75.5 -112.4,-118.1 c -63.9,-65.8 -133.6,-153 -158.8,-193.6 -32.9,-54.2 -54.2,-69.7 -77.5,-60 -122,50.3 -135.6,54.2 -182,32.9 -83.3,-38.7 -187.8,-426 -187.8,-706.8 0,-170.4 38.7,-216.9 160.7,-199.5 l 83.3,13.6 44.5,-153 c 23.2,-83.3 63.9,-189.8 87.1,-238.2 l 44.5,-85.2 -73.6,-54.2 c -102.6,-73.6 -98.8,-122 19.4,-263.3 110.4,-131.8 209.2,-217 389.3,-331.3 162.7,-104.6 224.6,-102.6 280.8,7.7 21.3,42.6 38.7,79.4 38.7,81.3 1.9,1.9 44.5,-9.7 96.8,-25.2 54.2,-15.5 166.5,-34.9 251.7,-42.6 l 154.9,-13.6 11.6,-92.9 c 11.6,-102.6 36.8,-129.7 125.9,-129.7 102.6,0 360.2,75.5 524.8,153 245.9,118.1 282.7,178.2 189.8,300.2 l -46.5,62 106.5,106.5 c 58.1,58.1 133.6,145.2 166.5,197.5 l 58.1,91 63.9,-38.7 c 123.9,-77.5 178.2,-34.8 251.7,195.6 85.2,273 100.7,629.3 27.1,677.8 -15.5,9.7 -65.8,15.5 -112.3,13.5 l -85.2,-5.8 -27.1,114.2 c -13.5,62 -52.3,170.4 -85.2,240.1 -48.4,98.8 -56.2,129.7 -34.8,137.5 15.5,3.9 52.3,32.9 81.3,63.9 42.6,40.7 52.3,63.9 40.7,96.8 -36.8,120 -325.3,387.3 -534.5,499.6 -141.4,75.5 -191.7,63.9 -240.1,-58.1 -25.2,-62 -36.8,-73.6 -63.9,-60 -46.5,25.2 -317.6,79.4 -398.9,79.4 -65.8,0 -67.8,1.9 -67.8,75.5 0,60 -11.6,85.2 -50.4,116.2 -29,23.2 -56.2,38.7 -63.9,38.7 -5.7,-1.9 -28.9,-5.7 -50.2,-9.6 z m 445.3,-861.7 c 387.3,-145.2 580.9,-602.2 410.5,-972.1 -273,-598.4 -1119.3,-571.3 -1349.7,38.7 -58.1,151 -48.4,414.4 19.4,553.8 87.1,182 275,342.8 464.8,402.8 102.6,31 342.7,19.4 455,-23.2 z"
            style="fill:#ffffff" />
         <path d="m 3401.4,2215.8 c -360.2,-166.5 -300.2,-691.3 89.1,-778.5 275,-62 546.1,209.1 484.1,484.1 -56.1,255.7 -340.8,402.9 -573.2,294.4 z"
            style="fill:#ffffff" />
         <path d="m 5804.6,1530.3 c -25.2,-19.4 -32.9,-42.6 -27.1,-79.4 7.7,-42.6 1.9,-52.3 -40.7,-63.9 -27.1,-5.8 -75.5,-23.2 -106.5,-40.7 -54.2,-27.1 -58.1,-25.2 -94.9,23.2 -19.4,27.1 -44.6,50.3 -52.3,50.3 -31,0 -154.9,-120.1 -214.9,-205.3 -69.7,-102.6 -71.6,-149.1 -5.8,-180.1 38.7,-17.4 48.4,-32.9 38.7,-65.8 -5.8,-23.2 -11.6,-75.5 -11.6,-114.3 0,-65.8 -3.9,-71.7 -62,-77.5 -63.9,-5.8 -63.9,-7.7 -62,-102.6 3.9,-104.6 83.3,-292.4 133.6,-311.8 15.5,-5.8 46.5,1.9 67.8,17.4 38.7,27.1 48.4,23.2 135.6,-40.7 75.5,-56.2 91,-75.5 75.5,-102.6 -40.7,-77.5 -21.3,-112.3 83.3,-143.3 123.9,-36.8 325.3,-38.7 327.3,-3.9 1.9,11.6 0,42.6 -1.9,67.8 -1.9,27.1 9.7,46.5 32.9,54.2 19.4,5.8 67.8,25.2 106.5,40.7 71.6,31 73.6,31 114.2,-21.3 31,-40.7 46.5,-46.5 75.5,-31 102.6,54.2 269.2,284.7 240.1,331.1 -5.8,11.6 -32.9,29.1 -60,38.7 -34.9,13.6 -44.6,27.1 -36.8,50.4 7.8,17.4 19.4,69.7 25.2,116.2 9.7,73.6 15.5,81.3 71.6,87.1 58.1,5.8 60,9.7 56.2,89.1 -1.9,46.5 -29,141.4 -62,209.1 -62,131.7 -94.9,151 -160.7,91 -32.9,-31 -38.7,-29 -108.4,34.9 -38.7,36.8 -79.4,71.6 -87.1,77.5 -7.8,5.8 -5.8,34.9 7.7,62 29.1,65.8 5.8,96.8 -92.9,125.9 -139.5,38.9 -265.4,46.6 -304.1,17.6 z M 6035,1131.4 c 125.9,-56.2 222.7,-201.4 222.7,-331.1 0,-69.7 -44.5,-180.1 -98.8,-242.1 -166.5,-189.8 -488,-149.1 -598.4,75.5 -150.9,315.7 158.9,641 474.5,497.7 z"
         style="fill:#ffffff" />
      </g>
   </g>
</svg>
