<?xml version="1.0" encoding="UTF-8" standalone="no"?>
<!-- Generator: Adobe Illustrator 19.0.0, SVG Export Plug-In . SVG Version: 6.00 Build 0)  -->

<svg
   version="1.1"
   id="Layer_1"
   x="0px"
   y="0px"
   viewBox="0 0 14.500001 20.000001"
   xml:space="preserve"
   width="14.5"
   height="20"
   xmlns="http://www.w3.org/2000/svg"
   xmlns:svg="http://www.w3.org/2000/svg"><defs
   id="defs412" />
<g
   id="g377"
   transform="matrix(0.06621141,0,0,0.06621141,-2.7840824,2.2753695e-4)"
   style="fill:#ffffff">
	<g
   id="g375"
   style="fill:#ffffff">
		<g
   id="g373"
   style="fill:#ffffff">
			<path
   d="m 243.228,50.942 c -3.627,-5.713 -11.727,-6.427 -16.512,-1.647 -0.054,0.048 -0.102,0.102 -0.156,0.156 -3.508,3.503 -4.147,8.954 -1.497,13.143 9.592,15.166 14.329,32.955 13.251,51.603 -1.352,23.369 -12.779,45.037 -30.069,60.819 -14.211,12.966 -23.32,30.268 -25.89,48.738 H 117.18 C 114.669,204.371 105.41,186.282 90.491,171.969 82.75,164.544 75.888,156.122 71.613,146.288 44.923,84.916 88.731,24.36 146.852,21.666 c 15.128,-0.676 29.753,2.446 42.864,8.943 4.013,1.99 8.857,1.057 12.028,-2.108 l 0.156,-0.156 c 5.247,-5.236 3.621,-13.964 -3.02,-17.247 C 182.646,3.078 164.567,-0.785 145.861,0.133 83.516,3.024 34.386,59.278 43.04,123.649 c 3.305,24.586 15.563,47.156 33.24,64.569 12.918,12.725 20.026,29.12 20.037,46.27 0.005,5.96 4.415,10.826 10.375,10.826 h 79.156 c 12.387,0 17.349,-4.614 17.312,-10.434 -0.102,-16.765 7.285,-32.998 20.236,-44.495 23.272,-20.665 36.619,-50.326 36.619,-81.382 C 260.02,88.044 254.14,68.13 243.228,50.942 Z"
   id="path367"
   style="fill:#ffffff" />
			<path
   d="m 191.341,251.581 h -85.036 c -5.955,0 -10.778,4.828 -10.778,10.778 0,5.949 4.823,10.778 10.778,10.778 h 85.036 c 5.955,0 10.778,-4.828 10.778,-10.778 0,-5.95 -4.823,-10.778 -10.778,-10.778 z"
   id="path369"
   style="fill:#ffffff" />
			<path
   d="m 175.66,280.507 h -53.674 c -5.955,0 -10.778,4.828 -10.778,10.778 0,5.949 4.823,10.778 10.778,10.778 h 53.668 c 5.955,0 10.778,-4.828 10.778,-10.778 0,-5.95 -4.817,-10.778 -10.772,-10.778 z"
   id="path371"
   style="fill:#ffffff" />
		</g>
	</g>
</g>
<g
   id="g379">
</g>
<g
   id="g381">
</g>
<g
   id="g383">
</g>
<g
   id="g385">
</g>
<g
   id="g387">
</g>
<g
   id="g389">
</g>
<g
   id="g391">
</g>
<g
   id="g393">
</g>
<g
   id="g395">
</g>
<g
   id="g397">
</g>
<g
   id="g399">
</g>
<g
   id="g401">
</g>
<g
   id="g403">
</g>
<g
   id="g405">
</g>
<g
   id="g407">
</g>
</svg>
