<svg xmlns="http://www.w3.org/2000/svg" xmlns:xlink="http://www.w3.org/1999/xlink" x="0px" y="0px"
	 width="20" height="20" viewBox="0 0 512 512" enable-background="new 0 0 512 512" xml:space="preserve">
<path fill="#616161" d="M500.2,63l-39.6-47.7c-8.1-9-19.8-15.3-33.3-15.3H85.5C72,0.1,60.3,6.4,52.2,15.4L13.5,63
	C5.4,72.9,0,85.5,0,99v356.3c0,31.5,25.2,56.7,56.7,56.7h398.5c31.5,0,56.7-25.2,56.7-56.7V99.9C512.8,85.5,508.3,73.8,500.2,63z
	M256.4,413L99.9,256.4h99.9v-56.7H314v56.7h99.9L256.4,413z M60.3,56.7l23.4-28.8h341.9l27,28.8H60.3z"/>
</svg>
